<svg width="32" height="32" viewBox="0 0 32 32" fill="none" xmlns="http://www.w3.org/2000/svg">
<path d="M13.1496 27.89L13.0559 28.3446L13.1496 27.89C12.8934 27.8402 12.6434 28.0021 12.5934 28.2574C12.5434 28.5127 12.7059 28.7556 12.9621 28.8054H12.9684C12.9996 28.8116 13.0246 28.8116 13.0559 28.8116C13.2746 28.8116 13.4746 28.6559 13.5184 28.4318C13.5684 28.1827 13.3996 27.9398 13.1496 27.89ZM16.7309 28.0395L16.7746 28.5065L16.7309 28.0395C16.4746 28.0644 16.2871 28.2948 16.3121 28.5501C16.3371 28.7929 16.5434 28.9673 16.7809 28.9673C16.7996 28.9673 16.8121 28.9673 16.8309 28.9673H16.8434C17.0996 28.9361 17.2809 28.7057 17.2559 28.4504C17.2184 28.1951 16.9871 28.0146 16.7309 28.0395ZM14.9371 28.0955H14.9309C14.6746 28.0831 14.4559 28.2823 14.4434 28.5438C14.4309 28.7991 14.6371 29.0171 14.8934 29.0295C14.8996 29.0295 14.9059 29.0295 14.9121 29.0295C15.1621 29.0295 15.3684 28.8365 15.3809 28.5812C15.3934 28.3259 15.1934 28.108 14.9371 28.0955ZM11.4184 27.4168C11.1684 27.3296 10.9059 27.4541 10.8184 27.697C10.7309 27.9398 10.8621 28.2076 11.1059 28.2948C11.1559 28.3135 11.2121 28.3197 11.2621 28.3197C11.4559 28.3197 11.6371 28.2014 11.7059 28.0083C11.7871 27.7717 11.6621 27.504 11.4184 27.4168ZM18.4996 27.7094L18.6121 28.164L18.4996 27.7094C18.2496 27.7717 18.0996 28.027 18.1621 28.2761C18.2184 28.4878 18.4059 28.6248 18.6184 28.6248C18.6559 28.6248 18.6996 28.6186 18.7371 28.6123C18.7371 28.6123 18.7496 28.6123 18.7496 28.6061C18.9996 28.5376 19.1434 28.2823 19.0746 28.0332C19.0059 27.7966 18.7496 27.6472 18.4996 27.7094ZM20.1934 27.1241L20.3809 27.5538L20.1934 27.1241C19.9559 27.23 19.8434 27.504 19.9496 27.7406C20.0246 27.9149 20.1996 28.0208 20.3809 28.0208C20.4434 28.0208 20.5059 28.0083 20.5684 27.9834L20.5809 27.9772C20.8184 27.8713 20.9184 27.5974 20.8121 27.3607C20.7059 27.1241 20.4309 27.0183 20.1934 27.1241ZM9.62462 5.83455C9.69962 5.83455 9.77462 5.81587 9.84962 5.77851C10.0809 5.6602 10.1621 5.37376 10.0434 5.1496C9.92462 4.91921 9.63712 4.83826 9.41212 4.95657H9.40587C9.17462 5.07488 9.09337 5.36131 9.21837 5.58548C9.29337 5.74738 9.45587 5.83455 9.62462 5.83455ZM4.20587 11.0526C4.27462 11.09 4.34962 11.1087 4.42462 11.1087C4.59337 11.1087 4.75587 11.0153 4.83712 10.8596L4.84337 10.8409C4.95587 10.6105 4.86212 10.3303 4.63087 10.2182C4.39962 10.1062 4.11837 10.1996 4.00587 10.4237C3.88712 10.6479 3.97462 10.9281 4.20587 11.0526ZM3.54337 12.8086C3.59337 12.8273 3.64337 12.8335 3.69337 12.8335C3.88712 12.8335 4.06837 12.709 4.13712 12.516L4.14337 12.4973C4.21837 12.2482 4.08087 11.9867 3.83087 11.912C3.58712 11.8372 3.32462 11.9742 3.24962 12.2171C3.16837 12.4599 3.29962 12.7277 3.54337 12.8086ZM5.13087 9.41499C5.21212 9.47725 5.31212 9.50216 5.40587 9.50216C5.54962 9.50216 5.69337 9.43367 5.78712 9.30913L5.79337 9.3029C5.94337 9.09119 5.89337 8.80476 5.68712 8.65531C5.47462 8.50587 5.18087 8.55568 5.03087 8.76117L5.40587 9.03515L5.02462 8.76117C4.87462 8.97288 4.91837 9.26554 5.13087 9.41499ZM8.03087 6.8433C8.13087 6.8433 8.23087 6.81217 8.31212 6.7499C8.51837 6.60045 8.56837 6.30779 8.41212 6.09608C8.26212 5.89059 7.96837 5.84078 7.75587 5.99645L7.74337 6.00268C7.53712 6.15835 7.49337 6.45101 7.65587 6.6565C7.74962 6.78103 7.89337 6.8433 8.03087 6.8433ZM3.12462 19.8885C3.18712 20.0878 3.37462 20.2186 3.57462 20.2186C3.61837 20.2186 3.66837 20.2123 3.71212 20.1999C3.95587 20.1252 4.09962 19.8636 4.02462 19.6208C3.95587 19.3779 3.69962 19.2285 3.44962 19.297C3.19962 19.3655 3.04962 19.6208 3.11837 19.8699C3.11837 19.8761 3.12462 19.8823 3.12462 19.8885ZM6.61837 8.07621C6.73712 8.07621 6.86212 8.0264 6.95587 7.933C7.13712 7.75242 7.13712 7.45353 6.95587 7.27295C6.77462 7.09237 6.47462 7.09237 6.29337 7.27295L6.28712 7.27918C6.10587 7.46598 6.11212 7.75865 6.29337 7.93922C6.38087 8.03263 6.49962 8.07621 6.61837 8.07621ZM3.64337 17.8524C3.61212 17.5971 3.37462 17.4165 3.12462 17.4476C2.86837 17.4787 2.68712 17.7091 2.71212 17.9644V17.9831C2.74337 18.2135 2.94337 18.3816 3.17462 18.3816C3.19962 18.3816 3.21837 18.3816 3.24337 18.3754C3.49962 18.3443 3.68087 18.1077 3.64337 17.8524ZM3.05587 16.5136C3.06212 16.5136 3.06837 16.5136 3.06837 16.5136C3.31837 16.5136 3.53087 16.3143 3.53712 16.059V16.0403C3.53712 15.785 3.32462 15.5733 3.06837 15.5733C2.81212 15.5733 2.60587 15.7788 2.59962 16.0341C2.59337 16.2956 2.79337 16.5074 3.05587 16.5136ZM3.15587 14.6455C3.18087 14.6518 3.21212 14.6518 3.23712 14.6518C3.46212 14.6518 3.65587 14.4899 3.69962 14.2657C3.69962 14.2595 3.69962 14.2532 3.70587 14.247C3.74337 13.9917 3.56837 13.7551 3.31212 13.7177C3.05587 13.6804 2.82462 13.8547 2.78087 14.1038C2.73087 14.3591 2.89962 14.5957 3.15587 14.6455ZM25.2684 9.56443C25.3621 9.69519 25.5059 9.76369 25.6559 9.76369C25.7496 9.76369 25.8371 9.73878 25.9184 9.68274C26.1309 9.53952 26.1871 9.24686 26.0371 9.03515L25.6496 9.29668L26.0371 9.03515C25.8934 8.82344 25.5996 8.7674 25.3871 8.91061C25.1746 9.05383 25.1184 9.34649 25.2621 9.5582L25.2684 9.56443ZM27.6621 14.2657C27.4059 14.2968 27.2184 14.5272 27.2496 14.7825V14.8012C27.2809 15.0316 27.4809 15.1997 27.7121 15.1997C27.7371 15.1997 27.7559 15.1997 27.7809 15.1935C28.0371 15.1561 28.2121 14.9257 28.1809 14.6704C28.1496 14.4214 27.9184 14.2346 27.6621 14.2657ZM26.8684 12.9456C26.9309 13.1573 27.1184 13.2881 27.3184 13.2881C27.3621 13.2881 27.4059 13.2819 27.4496 13.2694C27.6996 13.1947 27.8434 12.9394 27.7684 12.6903V12.6841C27.6934 12.435 27.4371 12.2918 27.1871 12.3665C26.9434 12.4412 26.7996 12.6965 26.8684 12.9456ZM26.2121 11.2021C26.2934 11.3702 26.4621 11.4636 26.6371 11.4636C26.7059 11.4636 26.7746 11.4512 26.8434 11.4138C27.0746 11.3017 27.1746 11.0215 27.0559 10.7911L26.6309 10.9904L27.0559 10.7911C26.9434 10.5545 26.6684 10.4549 26.4309 10.567C26.1934 10.679 26.0934 10.953 26.2059 11.1896L26.2121 11.2021ZM24.0871 8.10735C24.1809 8.20075 24.2996 8.25057 24.4246 8.25057C24.5434 8.25057 24.6621 8.20698 24.7559 8.1198C24.9371 7.93922 24.9434 7.64656 24.7684 7.46598C24.5934 7.27918 24.2996 7.26673 24.1059 7.44108C23.9184 7.61543 23.9059 7.91432 24.0809 8.10112L24.0871 8.10735ZM27.8121 16.2147C27.5559 16.2085 27.3371 16.4077 27.3309 16.663C27.3184 16.9183 27.5184 17.1363 27.7746 17.1487C27.7809 17.1487 27.7934 17.1487 27.7996 17.1487C28.0434 17.1487 28.2559 16.9557 28.2684 16.7066V16.6879C28.2746 16.4326 28.0746 16.2209 27.8121 16.2147ZM21.0871 5.80964L21.0996 5.81587C21.1684 5.85323 21.2434 5.87191 21.3184 5.87191C21.4871 5.87191 21.6496 5.78474 21.7309 5.62284C21.8559 5.39867 21.7684 5.11224 21.5434 4.9877L21.3184 5.39867L21.5434 4.9877C21.3184 4.86316 21.0309 4.94411 20.9059 5.17451C20.7809 5.4049 20.8621 5.69133 21.0871 5.80964ZM22.6746 6.83707L22.6809 6.8433C22.7684 6.90557 22.8621 6.9367 22.9621 6.9367C23.1059 6.9367 23.2434 6.87443 23.3371 6.7499C23.4934 6.54441 23.4559 6.25175 23.2496 6.09608H23.2434C23.0371 5.94041 22.7434 5.97777 22.5871 6.18326C22.4309 6.38874 22.4684 6.6814 22.6746 6.83707ZM31.7121 23.2822L29.5121 21.0841C29.3246 20.8973 29.0746 20.7914 28.8121 20.7914C28.5496 20.7914 28.2996 20.8973 28.1121 21.0841L28.0621 21.1339L27.9184 20.9907C27.7371 20.8101 27.5996 20.6046 27.5059 20.3805C27.4996 20.3493 27.4871 20.3244 27.4746 20.2933C27.4059 20.094 27.3684 19.8761 27.3684 19.6581V19.0355C27.4121 19.0604 27.4559 19.0728 27.5059 19.0853C27.5309 19.0915 27.5621 19.0915 27.5871 19.0915C27.8121 19.0915 28.0059 18.9358 28.0496 18.7117C28.0996 18.4564 27.9371 18.2135 27.6809 18.1637C27.5684 18.1388 27.4559 18.1637 27.3684 18.2135C27.3371 17.5472 27.0684 16.9308 26.5934 16.4575L24.4496 14.3217C23.9684 13.8423 23.3309 13.5807 22.6559 13.5807C22.1309 13.5807 21.6309 13.7364 21.2121 14.0353L20.9871 13.8111V8.46851C20.9871 7.82714 20.7496 7.20446 20.3246 6.71876C20.0246 6.37629 19.8559 5.93418 19.8559 5.47339V5.0811H19.8871C20.4309 5.0811 20.8809 4.639 20.8809 4.09104V0.990068C20.8746 0.442106 20.4309 0 19.8871 0H11.1309C10.5871 0 10.1371 0.442106 10.1371 0.990068V4.09726C10.1371 4.639 10.5809 5.08733 11.1309 5.08733H11.2059V5.29282C11.2059 5.79719 11.0121 6.27043 10.6496 6.62536L9.70587 7.56561C9.20587 8.06376 8.93087 8.73003 8.93087 9.43989V12.4537C8.93087 12.8647 9.03087 13.2507 9.20587 13.5932C8.58712 13.6306 8.00587 13.8859 7.56212 14.328L5.42462 16.4575C4.92462 16.9557 4.64962 17.622 4.64962 18.3318V19.6644C4.64962 20.1687 4.45587 20.642 4.09962 20.9969L3.95587 21.1401L3.90587 21.0903C3.71837 20.9035 3.46837 20.7977 3.20587 20.7977C2.94337 20.7977 2.69337 20.9035 2.50587 21.0903L0.287123 23.2822C-0.100377 23.6682 -0.100377 24.2909 0.287123 24.677L1.04337 25.4304C1.22462 25.611 1.52462 25.611 1.70587 25.4304C1.88712 25.2498 1.88712 24.951 1.70587 24.7704L0.949623 24.0169C0.930873 23.9983 0.930873 23.9609 0.949623 23.9422L3.14962 21.7441C3.16837 21.7255 3.20587 21.7255 3.22462 21.7441L3.60587 22.124L8.83087 27.3358L9.41837 27.9212C9.43712 27.9398 9.43712 27.9772 9.41837 27.9959L7.21837 30.2002C7.19962 30.2189 7.16212 30.2189 7.14337 30.2002L3.03087 26.0967C2.84962 25.9161 2.54962 25.9161 2.36837 26.0967C2.18712 26.2773 2.18712 26.5762 2.36837 26.7567L6.48087 30.8602C6.66837 31.047 6.91837 31.1529 7.18087 31.1529C7.44337 31.1529 7.69337 31.047 7.88087 30.8602L10.0809 28.6622C10.4684 28.2761 10.4684 27.6534 10.0809 27.2673L10.0559 27.2424L10.3309 26.9685C10.6559 26.6447 11.0871 26.4516 11.5434 26.4205C12.1871 26.3769 12.7934 26.1029 13.2496 25.6484L15.2684 23.6309C15.8496 23.4814 16.3059 23.0082 16.4309 22.4104C16.6371 22.51 16.8684 22.5661 17.1184 22.5661C17.9996 22.5661 18.7184 21.85 18.7184 20.972V19.8636C18.9184 19.957 19.1434 20.0068 19.3809 20.0068C20.2621 20.0068 20.9809 19.2908 20.9809 18.4128V15.1312L22.4246 16.5759C22.5184 16.6693 22.6371 16.7128 22.7559 16.7128C22.8746 16.7128 22.9934 16.6693 23.0871 16.5759C23.2684 16.3953 23.2684 16.0964 23.0871 15.9158L21.8871 14.714C22.1184 14.5833 22.3809 14.521 22.6559 14.521C23.0809 14.521 23.4871 14.6891 23.7871 14.988L25.9246 17.1176C26.2496 17.4414 26.4309 17.871 26.4309 18.3318V19.6644C26.4309 20.4178 26.7246 21.1277 27.2559 21.657L27.3996 21.8002L26.7121 22.4789L22.5996 26.5824L22.3684 26.352L22.3621 26.3458L22.3246 26.3084C21.8371 25.8227 21.1934 25.5301 20.5121 25.4865C20.0934 25.4616 19.7059 25.281 19.4059 24.9883L17.8684 23.4627C17.6871 23.2822 17.3871 23.2822 17.2059 23.4627C17.0246 23.6433 17.0246 23.9422 17.2059 24.1228L18.7434 25.6484C19.1996 26.1029 19.8059 26.3769 20.4496 26.4205C20.9059 26.4516 21.3371 26.6447 21.6621 26.9685L21.6871 26.9934C21.6996 27.0058 21.7121 27.0183 21.7246 27.0307L21.9434 27.2487L21.9184 27.2736C21.5309 27.6596 21.5309 28.2823 21.9184 28.6684L24.1184 30.8665C24.3059 31.0533 24.5559 31.1591 24.8184 31.1591C25.0809 31.1591 25.3309 31.0533 25.5184 30.8665L31.7121 24.6894C32.0934 24.2971 32.0934 23.6682 31.7121 23.2822ZM27.6746 18.6432H27.6684L27.5809 18.6245L27.6746 18.6432ZM12.5934 24.9883C12.2996 25.281 11.9059 25.4616 11.4871 25.4865C10.7996 25.5301 10.1559 25.8227 9.67462 26.3084L9.39962 26.5824L9.14962 26.3333C9.14337 26.3271 9.14337 26.3271 9.13712 26.3209L4.60587 21.7939L4.74962 21.6507C5.28087 21.1215 5.57462 20.4116 5.57462 19.6581V18.3256C5.57462 17.8648 5.75587 17.4352 6.08087 17.1114L8.21837 14.9818C8.51837 14.6829 8.92462 14.5148 9.34962 14.5148C9.62462 14.5148 9.88712 14.5833 10.1184 14.714L8.91212 15.9158C8.73087 16.0964 8.73087 16.3953 8.91212 16.5759C9.00587 16.6693 9.12462 16.7128 9.24337 16.7128C9.36212 16.7128 9.48087 16.6693 9.57462 16.5759L11.0121 15.1375V20.9658C11.0121 21.8438 11.7309 22.5599 12.6121 22.5599C12.8621 22.5599 13.0934 22.5038 13.3059 22.4042C13.3996 22.865 13.6996 23.2573 14.0996 23.4814L12.5934 24.9883ZM20.0434 18.4128C20.0434 18.7802 19.7434 19.0728 19.3809 19.0728C19.0184 19.0728 18.7184 18.7739 18.7184 18.4128V13.2009C18.7184 12.9456 18.5059 12.7339 18.2496 12.7339C17.9934 12.7339 17.7809 12.9456 17.7809 13.2009V20.972C17.7809 21.3394 17.4871 21.6321 17.1184 21.6321C16.7934 21.6321 16.5184 21.3954 16.4684 21.0779V13.1947C16.4684 12.9394 16.2559 12.7277 15.9996 12.7277C15.9184 12.7277 15.8371 12.7526 15.7684 12.7899C15.6184 12.8709 15.5184 13.0266 15.5184 13.2009V20.972C15.5184 21.0343 15.5246 21.0903 15.5309 21.1464V22.0866C15.5309 22.454 15.2371 22.7467 14.8684 22.7467C14.5059 22.7467 14.2059 22.4478 14.2059 22.0866V13.1885C14.2059 12.9332 13.9934 12.7214 13.7371 12.7214C13.4809 12.7214 13.2684 12.9332 13.2684 13.1885V20.972C13.2684 21.3394 12.9746 21.6321 12.6059 21.6321C12.2434 21.6321 11.9434 21.3332 11.9434 20.972V12.2856C11.9434 12.0303 11.7309 11.8185 11.4746 11.8185C11.2184 11.8185 11.0059 12.0303 11.0059 12.2856V13.8921C10.9684 13.9045 10.9309 13.9232 10.8934 13.9481C10.2871 13.724 9.85587 13.1386 9.85587 12.4537V9.43989C9.85587 8.97911 10.0371 8.54946 10.3621 8.22566L11.3059 7.28541C11.8371 6.75612 12.1309 6.04626 12.1309 5.29282V5.08733H13.0746C13.3309 5.08733 13.5434 4.87562 13.5434 4.62032C13.5434 4.36502 13.3309 4.1533 13.0746 4.1533H11.1246C11.0934 4.1533 11.0684 4.1284 11.0684 4.09726V0.990068C11.0684 0.958934 11.0934 0.934026 11.1246 0.934026H19.8809C19.9121 0.934026 19.9371 0.958934 19.9371 0.990068V4.09726C19.9371 4.1284 19.9121 4.1533 19.8809 4.1533H15.2809C15.0246 4.1533 14.8121 4.36502 14.8121 4.62032C14.8121 4.87562 15.0246 5.08733 15.2809 5.08733H18.9121V5.47962C18.9121 6.16457 19.1621 6.82462 19.6121 7.34145C19.8871 7.65279 20.0371 8.05754 20.0371 8.47473V18.4128H20.0434ZM31.0496 24.0232L24.8559 30.2002C24.8434 30.2126 24.8309 30.2189 24.8184 30.2189C24.8059 30.2189 24.7934 30.2126 24.7809 30.2002L22.5809 28.0021C22.5621 27.9834 22.5621 27.9461 22.5809 27.9274L22.9371 27.5725L26.5309 23.9858L28.7746 21.7504C28.7934 21.7317 28.8309 21.7317 28.8496 21.7504L31.0496 23.9484C31.0684 23.9671 31.0684 23.9983 31.0496 24.0232ZM12.6121 2.0424C12.3371 2.0424 12.1121 2.26657 12.1121 2.54055C12.1121 2.81453 12.3371 3.0387 12.6121 3.0387C12.8871 3.0387 13.1121 2.81453 13.1121 2.54055C13.1121 2.26657 12.8871 2.0424 12.6121 2.0424ZM28.9621 23.332C28.6871 23.332 28.4621 23.5561 28.4621 23.8301C28.4621 24.1041 28.6871 24.3283 28.9621 24.3283C29.2371 24.3283 29.4621 24.1041 29.4621 23.8301C29.4621 23.5561 29.2371 23.332 28.9621 23.332ZM7.81212 28.0955C7.81212 27.8215 7.58712 27.5974 7.31212 27.5974C7.03712 27.5974 6.81212 27.8215 6.81212 28.0955C6.81212 28.3695 7.03712 28.5937 7.31212 28.5937C7.58712 28.5937 7.81212 28.3695 7.81212 28.0955Z" fill="#4E4E4E"/>
</svg>
