<svg width="30" height="28" viewBox="0 0 30 28" fill="none" xmlns="http://www.w3.org/2000/svg">
<path d="M24.9047 16.9663C24.2657 16.3465 23.5038 16.0175 22.6927 16.0175C21.8898 16.0175 21.1115 16.3388 20.4479 16.9586L18.3752 18.8869C18.2031 18.8027 18.0311 18.7185 17.8672 18.642C17.6296 18.5349 17.4084 18.4278 17.22 18.3206C15.2783 17.1729 13.5169 15.6731 11.8292 13.7296C11.01 12.7655 10.4611 11.9468 10.0596 11.1204C10.6003 10.6613 11.0919 10.1869 11.5834 9.72776C11.7637 9.55942 11.9521 9.37578 12.1324 9.20744C13.5087 7.92196 13.5087 6.25388 12.1324 4.96839L10.3464 3.30032C10.1415 3.10903 9.93672 2.91773 9.7401 2.71879C9.34685 2.3362 8.93721 1.94597 8.51119 1.57868C7.86397 0.989502 7.10206 0.675781 6.30737 0.675781C5.50448 0.675781 4.73437 0.989502 4.07896 1.57868L4.06257 1.59399L1.83417 3.69056C0.990322 4.47103 0.515147 5.4275 0.408642 6.537C0.252981 8.3275 0.818275 9.98792 1.24429 11.0821C2.30934 13.7602 3.89053 16.2394 6.25821 18.8945C9.12564 22.0929 12.583 24.6257 16.5318 26.4085C18.0393 27.0742 20.0547 27.8623 22.2995 28.0001C22.4387 28.0077 22.578 28.0154 22.7091 28.0154C24.2247 28.0154 25.4946 27.5103 26.4941 26.5003C26.5023 26.485 26.5105 26.485 26.5187 26.4697C26.8628 26.0871 27.256 25.7352 27.6657 25.3602C27.9442 25.1077 28.2391 24.8476 28.5177 24.5721C29.1649 23.9447 29.509 23.2101 29.509 22.4526C29.509 21.695 29.1649 20.9681 28.5013 20.356L24.9047 16.9663ZM27.2478 23.409C27.2396 23.409 27.2396 23.4167 27.2478 23.409C26.9939 23.6692 26.7317 23.8987 26.445 24.1589C26.0189 24.5415 25.5847 24.9394 25.1833 25.3832C24.5197 26.0412 23.7414 26.3549 22.7173 26.3549C22.619 26.3549 22.5125 26.3549 22.4142 26.3473C20.4643 26.2325 18.6619 25.5209 17.3019 24.9164C13.5907 23.2407 10.3382 20.861 7.62639 17.8386C5.39798 15.3288 3.90691 13.0027 2.9156 10.5006C2.30934 8.97789 2.07995 7.79188 2.17826 6.66707C2.2438 5.94781 2.53874 5.35863 3.07945 4.84597L5.31605 2.75705C5.63557 2.47393 5.97966 2.3209 6.31556 2.3209C6.72519 2.3209 7.06109 2.55045 7.2741 2.7494L7.29049 2.7647C7.69193 3.11668 8.06879 3.47631 8.47023 3.85889C8.67505 4.05784 8.87986 4.24913 9.09287 4.45573L10.8789 6.1238C11.5753 6.7742 11.5753 7.37103 10.8789 8.02143C10.6904 8.19742 10.502 8.37341 10.3136 8.5494C9.76467 9.07736 9.24034 9.56707 8.66685 10.0415C8.65047 10.0568 8.64228 10.0568 8.63408 10.0721C8.06879 10.6001 8.17529 11.1127 8.28999 11.4647L8.30638 11.5183C8.77336 12.5742 9.42877 13.5613 10.4201 14.7473L10.4283 14.7549C12.2389 16.8362 14.1478 18.4584 16.2451 19.6979C16.5154 19.8586 16.7858 19.9887 17.048 20.1111C17.2855 20.2183 17.5067 20.3254 17.6952 20.4325C17.7198 20.4478 17.7443 20.4631 17.7771 20.4784C17.9983 20.5855 18.2113 20.6315 18.4243 20.6315C18.965 20.6315 19.3091 20.3101 19.4238 20.2106L21.6686 18.114C21.8898 17.9074 22.2421 17.6549 22.6599 17.6549C23.0696 17.6549 23.3973 17.8921 23.6021 18.0987L27.2233 21.4808C27.9196 22.1235 27.9196 22.7663 27.2478 23.409Z" fill="#7F7F7F"/>
</svg>
