<svg width="747" height="735" viewBox="0 0 747 735" fill="none" xmlns="http://www.w3.org/2000/svg">
<path d="M393.637 49.1047L54.8586 352.349C24.5878 379.445 21.4444 425.411 47.8454 454.906L249.848 680.578C276.249 710.073 322.281 712.021 352.552 684.925L691.33 381.681C721.601 354.585 724.744 308.619 698.343 279.124L496.442 53.5647C470.041 24.0702 423.908 22.0089 393.637 49.1047ZM673.291 301.548C687.655 317.595 685.95 342.53 669.481 357.272L330.703 660.516C314.234 675.258 289.263 674.201 274.9 658.154L72.9982 432.595C58.6345 416.548 60.3396 391.613 76.8088 376.872L415.587 73.627C432.056 58.8852 457.026 59.9421 471.39 75.9889L673.291 301.548Z" fill="#7F7F7F" fill-opacity="0.1"/>
<path d="M429.028 311.76L452.967 117.721C454.024 108.633 447.61 100.534 438.419 99.6009C429.329 98.7812 421.037 105.389 419.864 114.581L386.975 382.173L334.555 382.889C334.338 382.88 334.12 382.871 334.12 382.871C332.818 382.816 331.833 382.883 330.515 383.045L116.808 385.85C107.543 386.002 100.061 393.513 99.9737 402.751C99.8864 411.989 107.229 419.258 116.494 419.106L313.973 416.375L293.672 616.112C292.832 625.21 299.363 633.206 308.569 633.921C313.346 634.124 317.807 632.573 321.17 629.562C324.186 626.863 326.306 622.93 326.819 618.603L347.429 415.943L401.485 415.187C405.742 415.041 409.552 413.462 412.567 410.763C415.583 408.064 417.586 404.235 418.085 400.124L424.921 344.747L628.948 348.164C633.406 348.244 637.549 346.571 640.565 343.871C643.928 340.861 646.063 336.711 646.172 331.932C646.578 322.816 639.366 315.226 630.232 315.057L429.028 311.76Z" fill="#7F7F7F" fill-opacity="0.1"/>
</svg>
