<svg width="159" height="133" viewBox="0 0 159 133" fill="none" xmlns="http://www.w3.org/2000/svg">
<path d="M105.959 73.7944L72.6266 73.5513V107.713" fill="#02547B"/>
<path d="M105.959 73.6728L72.6266 73.5513V107.713" fill="#02547C"/>
<path d="M105.959 73.6728L72.6266 73.5513V107.713" fill="#02557D"/>
<path d="M105.959 73.6728L72.6266 73.5513V107.713" fill="#02557E"/>
<path d="M105.959 73.6728L72.6266 73.5513V107.591" fill="#02567F"/>
<path d="M105.959 73.6728L72.6266 73.5513V107.591" fill="#025680"/>
<path d="M105.959 73.6728L72.6266 73.4297V107.591" fill="#015781"/>
<path d="M105.959 73.6728L72.6266 73.4297V107.591" fill="#015782"/>
<path d="M105.959 73.5513L72.6266 73.4297V107.591" fill="#015783"/>
<path d="M105.959 73.5513L72.6266 73.4297V107.591" fill="#015884"/>
<path d="M105.959 73.5513L72.6266 73.4297V107.47" fill="#015885"/>
<path d="M105.959 73.5513L72.6266 73.4297V107.47" fill="#015986"/>
<path d="M105.959 73.5513L72.6266 73.4297V107.47" fill="#015986"/>
<path d="M105.959 73.5509L72.6266 73.3077V107.47" fill="#015A87"/>
<path d="M105.959 73.5509L72.6266 73.3077V107.47" fill="#015A88"/>
<path d="M105.959 73.4293L72.6266 73.3077V107.47" fill="#015B89"/>
<path d="M105.959 73.4293L72.6266 73.3077V107.348" fill="#015B8A"/>
<path d="M105.959 73.4293L72.6266 73.3077V107.348" fill="#015B8B"/>
<path d="M105.959 73.4293L72.6266 73.3077V107.348" fill="#005C8C"/>
<path d="M105.959 73.4293L72.6266 73.3077V107.348" fill="#005C8D"/>
<path d="M105.959 73.4297L72.6266 73.1865V107.348" fill="#005D8E"/>
<path d="M105.838 73.4297L72.6266 73.1865V107.227" fill="#005D8F"/>
<path d="M105.838 73.3081L72.6266 73.1865V107.227" fill="#005E90"/>
<path d="M105.838 73.3081L72.6266 73.1865V107.227" fill="#005E91"/>
<path d="M105.594 61.3939L72.5049 75.2532L72.6266 78.5356L102.796 75.3747L105.594 61.3939Z" fill="#014064"/>
<path d="M70.8018 84.6143L46.7146 64.798L59.6098 54.2212V32.0951L31.9946 53.2486V76.3474L70.8018 107.713V84.6143Z" fill="#009091"/>
<path d="M70.8018 84.6144L46.7146 64.7981L31.9946 76.3475L70.8018 107.713V84.6144Z" fill="#03726E"/>
<path d="M70.8018 84.4928L46.7146 64.7981L31.9946 76.3475L70.8018 107.713V84.4928Z" fill="#03736F"/>
<path d="M70.8018 84.4928L46.5929 64.7981L31.9946 76.2259L70.8018 107.713V84.4928Z" fill="#037470"/>
<path d="M70.8018 84.4928L46.5929 64.6765L31.9946 76.2259L70.8018 107.713V84.4928Z" fill="#037571"/>
<path d="M70.8018 84.4928L46.5929 64.6765L31.9946 76.2259L70.8018 107.592V84.4928Z" fill="#037572"/>
<path d="M70.8018 84.4928L46.5929 64.6765L31.9946 76.2259L70.8018 107.592V84.4928Z" fill="#037673"/>
<path d="M70.8018 84.4928L46.5929 64.6765L31.9946 76.1043L70.8018 107.592V84.4928Z" fill="#027774"/>
<path d="M70.8018 84.4928L46.4713 64.6765L31.9946 76.1043L70.8018 107.592V84.4928Z" fill="#027875"/>
<path d="M70.8018 84.4928L46.4713 64.6765L31.9946 76.1043L70.8018 107.47V84.4928Z" fill="#027976"/>
<path d="M70.8018 84.4928L46.4713 64.6765L31.9946 76.1043L70.8018 107.47V84.4928Z" fill="#027A77"/>
<path d="M70.8018 84.4928L46.4713 64.6765L31.9946 75.9827L70.8018 107.47V84.4928Z" fill="#027A78"/>
<path d="M70.8018 84.4928L46.4713 64.5549L31.9946 75.9827L70.8018 107.47V84.4928Z" fill="#027B79"/>
<path d="M70.8018 84.4928L46.4713 64.5549L31.9946 75.9827L70.8018 107.348V84.4928Z" fill="#027C7A"/>
<path d="M70.8018 84.4928L46.3496 64.5549L31.9946 75.9827L70.8018 107.348V84.4928Z" fill="#027D7B"/>
<path d="M70.8018 84.4928L46.3496 64.5549L31.9946 75.8612L70.8018 107.348V84.4928Z" fill="#027E7C"/>
<path d="M70.8018 84.4928L46.3496 64.5549L31.9946 75.8612L70.8018 107.348V84.4928Z" fill="#027F7D"/>
<path d="M70.8018 84.4928L46.3496 64.5549L31.9946 75.8611L70.8018 107.227V84.4928Z" fill="#027F7E"/>
<path d="M70.8018 84.4928L46.3496 64.5549L31.9946 75.8611L70.8018 107.227V84.4928Z" fill="#02807F"/>
<path d="M70.8018 84.3712L46.3496 64.5549L31.9946 75.7396L70.8018 107.227V84.3712Z" fill="#028180"/>
<path d="M70.8018 84.3712L46.228 64.5549L31.9946 75.7396L70.8018 107.227V84.3712Z" fill="#018280"/>
<path d="M70.8018 84.3708L46.228 64.433L31.9946 75.7392L70.8018 107.105V84.3708Z" fill="#018381"/>
<path d="M70.8018 84.3708L46.228 64.433L31.9946 75.7392L70.8018 107.105V84.3708Z" fill="#018382"/>
<path d="M70.8018 84.3708L46.228 64.433L31.9946 75.6176L70.8018 107.105V84.3708Z" fill="#018483"/>
<path d="M70.8018 84.3708L46.228 64.433L31.9946 75.6176L70.8018 107.105V84.3708Z" fill="#018584"/>
<path d="M70.8018 84.3708L46.1063 64.433L31.9946 75.6176L70.8018 106.983V84.3708Z" fill="#018685"/>
<path d="M70.8018 84.3708L46.1063 64.433L31.9946 75.6176L70.8018 106.983V84.3708Z" fill="#018786"/>
<path d="M70.8018 84.3708L46.1063 64.433L31.9946 75.4961L70.8018 106.983V84.3708Z" fill="#018887"/>
<path d="M70.8016 84.3708L46.1061 64.433L32.116 75.4961L70.8016 106.983V84.3708Z" fill="#018888"/>
<path d="M70.8016 84.3708L46.1061 64.433L32.116 75.496L70.8016 106.862V84.3708Z" fill="#018989"/>
<path d="M70.8016 84.3712L46.1061 64.3118L32.116 75.4964L70.8016 106.862V84.3712Z" fill="#018A8A"/>
<path d="M70.8016 84.3712L45.9844 64.3118L32.116 75.3748L70.8016 106.862V84.3712Z" fill="#018B8B"/>
<path d="M70.8016 84.3712L45.9844 64.3118L32.116 75.3748L70.8016 106.862V84.3712Z" fill="#008C8C"/>
<path d="M70.8016 84.3712L45.9844 64.3118L32.116 75.3748L70.8016 106.74V84.3712Z" fill="#008D8D"/>
<path d="M70.8016 84.3712L45.9844 64.3118L32.116 75.3748L70.8016 106.74V84.3712Z" fill="#008D8E"/>
<path d="M70.8016 84.2496L45.9844 64.3118L32.116 75.2533L70.8016 106.74V84.2496Z" fill="#008E8F"/>
<path d="M70.8016 84.2496L45.8628 64.3118L32.116 75.2533L70.8016 106.74V84.2496Z" fill="#008F90"/>
<path d="M70.8016 84.2496L45.8628 64.3118L32.116 75.2533L70.8016 106.619V84.2496Z" fill="#009091"/>
<path d="M59.6098 54.2212V32.0951L31.9946 53.2486V76.3474L59.6098 54.2212Z" fill="#00DFCB"/>
<path d="M59.6098 54.2212V32.0951L31.9946 53.2486V76.3474L59.6098 54.2212Z" fill="#30F9DF"/>
<path d="M59.3665 54.0997L59.2448 32.703L32.1163 53.4918L32.2379 75.9827L59.3665 54.0997Z" fill="url(#paint0_radial_2_521)"/>
<path d="M59.1232 53.9781L59.0015 33.4324L32.3596 53.7349L32.4812 75.7395L59.1232 53.9781Z" fill="url(#paint1_radial_2_521)"/>
<path d="M61.9212 52.8839L86.9816 32.7029L73.8431 22.1261V0L101.337 21.032V44.1307L61.9212 75.6179V52.8839Z" fill="url(#paint2_radial_2_521)"/>
<path opacity="0.41" d="M101.337 44.3738L70.4369 45.9543L86.86 32.7029L101.337 44.3738Z" fill="#911808"/>
<path d="M101.337 44.3738L74.2081 42.9149L86.86 32.7029" fill="#701208"/>
<path d="M101.337 44.3738L70.6802 40.9698L86.86 32.7029L101.337 44.3738Z" fill="url(#paint3_radial_2_521)"/>
<path d="M101.215 44.2522L71.1668 40.8482L86.86 32.7029L101.215 44.2522Z" fill="url(#paint4_radial_2_521)"/>
<path d="M101.093 44.0091L71.7751 40.7266L86.86 32.7029L101.093 44.0091Z" fill="url(#paint5_radial_2_521)"/>
<path opacity="0.41" d="M80.534 36.2285L86.86 32.7029L101.337 44.1307L80.534 36.2285Z" fill="#911808"/>
<path d="M85.0352 33.797L86.86 32.7029L101.337 44.1307L85.0352 33.797Z" fill="#701208"/>
<path d="M100.972 43.8876L61.9212 74.8885V75.6179L101.337 44.1307L100.972 43.8876Z" fill="#BC1E13"/>
<path d="M73.8431 22.1261V0L101.337 21.032V44.1307L73.8431 22.1261Z" fill="#FC9568"/>
<path d="M74.2081 22.0046L74.3298 0.972656L101.215 21.7615V43.6445L74.2081 22.0046Z" fill="url(#paint6_radial_2_521)"/>
<path d="M74.5731 22.0046L74.8164 2.06677L100.972 22.3693L101.093 43.1582L74.5731 22.0046Z" fill="url(#paint7_radial_2_521)"/>
<path d="M70.8018 84.6142L46.7146 64.798L46.3496 65.0411L69.9503 84.6142H70.8018Z" fill="#0AA09A"/>
<path d="M101.215 57.2605L85.5218 57.5036L62.7727 75.3748H124.572L101.215 57.2605Z" fill="#38CAFC"/>
<path d="M100.972 57.8684L84.9135 57.99L63.2594 74.7669L123.356 74.6454L100.972 57.8684Z" fill="url(#paint8_radial_2_521)"/>
<path d="M94.4024 57.3821L85.6435 57.5037L63.1377 75.1316L94.4024 57.3821Z" fill="#005E91"/>
<path opacity="0.5" d="M54.3787 71.1197L46.7146 64.798L31.9946 76.3473L54.3787 71.1197Z" fill="#016264"/>
<path opacity="0.5" d="M50.3642 67.7157L46.7146 64.798L31.9946 76.3473L50.3642 67.7157Z" fill="#016264"/>
<defs>
<radialGradient id="paint0_radial_2_521" cx="0" cy="0" r="1" gradientUnits="userSpaceOnUse" gradientTransform="translate(60.875 35.5859) rotate(-34.8165) scale(83.0608 47.8811)">
<stop offset="0.1129" stop-color="#18ECCF"/>
<stop offset="1" stop-color="#18E4DF"/>
</radialGradient>
<radialGradient id="paint1_radial_2_521" cx="0" cy="0" r="1" gradientUnits="userSpaceOnUse" gradientTransform="translate(60.6236 36.1467) rotate(-34.8166) scale(81.2699 46.8487)">
<stop offset="0.1129" stop-color="#01DFBE"/>
<stop offset="1" stop-color="#01D0DF"/>
</radialGradient>
<radialGradient id="paint2_radial_2_521" cx="0" cy="0" r="1" gradientUnits="userSpaceOnUse" gradientTransform="translate(81.6186 37.8039) scale(30.1765 30.1566)">
<stop offset="0.016129" stop-color="#CC1B02"/>
<stop offset="1" stop-color="#ED1E03"/>
</radialGradient>
<radialGradient id="paint3_radial_2_521" cx="0" cy="0" r="1" gradientUnits="userSpaceOnUse" gradientTransform="translate(85.9688 38.5266) scale(11.5824 11.5748)">
<stop offset="0.0591398" stop-color="#F29442"/>
<stop offset="1" stop-color="#F27E42"/>
</radialGradient>
<radialGradient id="paint4_radial_2_521" cx="0" cy="0" r="1" gradientUnits="userSpaceOnUse" gradientTransform="translate(86.1929 38.4484) scale(11.3604 11.3529)">
<stop offset="0.0591398" stop-color="#F27F23"/>
<stop offset="1" stop-color="#F26523"/>
</radialGradient>
<radialGradient id="paint5_radial_2_521" cx="0" cy="0" r="1" gradientUnits="userSpaceOnUse" gradientTransform="translate(86.4172 38.3701) scale(11.1383 11.1309)">
<stop offset="0.0591398" stop-color="#F26A03"/>
<stop offset="1" stop-color="#F24C03"/>
</radialGradient>
<radialGradient id="paint6_radial_2_521" cx="0" cy="0" r="1" gradientUnits="userSpaceOnUse" gradientTransform="translate(74.324 14.575) rotate(17.4584) scale(27.3183 31.3793)">
<stop offset="0.0591398" stop-color="#F78036"/>
<stop offset="1" stop-color="#F77136"/>
</radialGradient>
<radialGradient id="paint7_radial_2_521" cx="0" cy="0" r="1" gradientUnits="userSpaceOnUse" gradientTransform="translate(74.6979 15.1078) rotate(17.4584) scale(26.5439 30.4897)">
<stop offset="0.0591398" stop-color="#F26A03"/>
<stop offset="1" stop-color="#F24C03"/>
</radialGradient>
<radialGradient id="paint8_radial_2_521" cx="0" cy="0" r="1" gradientUnits="userSpaceOnUse" gradientTransform="translate(94.9892 57.3375) scale(90.1821 46.6564)">
<stop offset="0.1129" stop-color="#01B3DF"/>
<stop offset="1" stop-color="#0183DF"/>
</radialGradient>
</defs>
</svg>
